Coordinates
version=1
nRows=26
nColumns=24
inDegrees=yes

Units are S.I. units (second, meters, Newtons, ...)
Angles are in degrees.

endheader
time	pelvis_tilt	pelvis_list	pelvis_rotation	pelvis_tx	pelvis_ty	pelvis_tz	hip_flexion_r	hip_adduction_r	hip_rotation_r	knee_angle_r	ankle_angle_r	subtalar_angle_r	mtp_angle_r	hip_flexion_l	hip_adduction_l	hip_rotation_l	knee_angle_l	ankle_angle_l	subtalar_angle_l	mtp_angle_l	lumbar_extension	lumbar_bending	lumbar_rotation
      4.50000000	    -11.89644128	      0.88651974	     -4.22009880	     -1.81513537	     -0.02855935	     -0.28681757	     -4.00566624	      2.99778466	      7.07677250	    -15.10687133	      6.95035570	      7.51435090	     20.90734822	     34.85806132	     -0.32577659	     -0.14388630	     -8.53592902	     -1.50325845	      0.43758371	      8.04295101	      9.43213526	     -0.87882136	     13.36291396
      4.50500000	    -11.96754898	      1.03160449	     -4.27481623	     -1.80846325	     -0.02936160	     -0.28734247	     -4.13112029	      2.72643864	      6.87862861	    -15.49672523	      6.74097200	      8.08659236	     21.06871886	     34.89384273	     -0.16520653	     -0.18814566	     -9.14615887	     -1.95699814	      0.15499124	      8.03647590	      9.71250326	     -1.02852305	     13.40380066
      4.51000000	    -12.03415736	      1.18615218	     -4.27644306	     -1.80182085	     -0.03010912	     -0.28797595	     -4.23833420	      2.43384054	      6.57235680	    -15.91158175	      6.48631012	      8.73370560	     21.32265877	     34.94016292	      0.04504105	     -0.16211907	     -9.76348111	     -2.50777366	     -0.17718674	      8.09179423	      9.97889421	     -1.19682836	     13.37731204
      4.51500000	    -12.09341014	      1.35145314	     -4.26615196	     -1.79523282	     -0.03075060	     -0.28866022	     -4.32357571	      2.11865669	      6.23988146	    -16.35628367	      6.15472374	      9.45575707	     21.70216829	     34.97692853	      0.28310066	     -0.06107838	    -10.35855495	     -3.16103542	     -0.58651462	      8.22579341	     10.22796694	     -1.37255628	     13.31445546
      4.52000000	    -12.16428258	      1.58383793	     -4.21796932	     -1.78866802	     -0.03131490	     -0.28935131	     -4.36938129	      1.73724865	      5.88773812	    -16.83110919	      5.76711825	     10.11086437	     22.11699728	     35.04406383	      0.60859956	      0.04402867	    -10.97000168	     -3.85173203	     -0.94778288	      8.36485187	     10.48596071	     -1.63835316	     13.25371458
      4.52500000	    -12.23363424	      1.84734986	     -4.12670282	     -1.78214139	     -0.03178577	     -0.29009033	     -4.39561755	      1.31793057	      5.46496864	    -17.32153698	      5.31561266	     10.78519738	     22.60287213	     35.13631883	      1.00032670	      0.20864618	    -11.62333357	     -4.55055959	     -1.32254115	      8.49446062	     10.73607352	     -1.94858830	     13.18139801
      4.53000000	    -12.31095523	      2.16335707	     -4.01317649	     -1.77562952	     -0.03213395	     -0.29081390	     -4.37812228	      0.84285215	      5.02555463	    -17.85954058	      4.79507943	     11.47570076	     23.09644418	     35.23617270	      1.46000101	      0.44078197	    -12.28253228	     -5.22186546	     -1.62970775	      8.54331936	     10.99523380	     -2.32782277	     13.08376447
      4.53500000	    -12.38455349	      2.51267382	     -3.86403662	     -1.76914834	     -0.03237494	     -0.29155102	     -4.33253828	      0.32884255	      4.52488464	    -18.43814680	      4.20713926	     12.19163029	     23.63279317	     35.34357449	      1.98422772	      0.76845583	    -12.97500586	     -5.85093332	     -1.91578319	      8.49298521	     11.24373098	     -2.75750399	     12.97036193
      4.54000000	    -12.46092715	      2.90205371	     -3.69202387	     -1.76267991	     -0.03252497	     -0.29226035	     -4.24795201	     -0.22755818	      4.02254963	    -19.07740168	      3.58550731	     12.94945852	     24.13743322	     35.45702958	      2.56608980	      1.15427429	    -13.69030040	     -6.40560467	     -2.12634939	      8.33830212	     11.49358726	     -3.24714365	     12.79776966
      4.54500000	    -12.48211581	      3.30304423	     -3.47789104	     -1.75620380	     -0.03250332	     -0.29304572	     -4.22069885	     -0.80882053	      3.43964193	    -19.66381451	      2.63156752	     13.56654701	     25.23450808	     35.49888935	      3.22420033	      1.76033313	    -14.41896484	     -6.91296522	     -2.53708397	      7.73495726	     11.67490434	     -3.75741237	     12.66869168
      4.55000000	    -12.55262875	      3.69817044	     -3.27354147	     -1.74978278	     -0.03251247	     -0.29372347	     -4.05527172	     -1.39271907	      2.74173522	    -20.43512018	      1.90142180	     14.47465520	     25.73927217	     35.62060309	      3.84495323	      2.23253479	    -15.19871690	     -7.25990756	     -2.58587142	      7.38811491	     11.90077251	     -4.27089994	     12.54463014
      4.55500000	    -12.60444880	      4.09870984	     -3.01651366	     -1.74322929	     -0.03242169	     -0.29447440	     -3.92428101	     -1.99427315	      2.02003162	    -21.18470941	      1.02365116	     15.41474012	     26.28085316	     35.68986096	      4.52540873	      2.82104086	    -15.94660389	     -7.59940826	     -2.77687236	      6.88916837	     12.12459458	     -4.80189701	     12.37536328
      4.56000000	    -12.59161455	      4.53412681	     -2.77949266	     -1.73666144	     -0.03217393	     -0.29518628	     -3.83393940	     -2.63811139	      1.34152950	    -21.92551948	     -0.22383116	     16.12003351	     27.46011298	     35.63921349	      5.26050643	      3.54283983	    -16.65312637	     -7.74301446	     -3.09403158	      5.60020219	     12.27291253	     -5.37648597	     12.20946094
      4.56500000	    -12.62156027	      4.90783154	     -2.54345003	     -1.73009314	     -0.03200902	     -0.29588966	     -3.63996655	     -3.23771460	      0.55285753	    -22.79700633	     -1.35891313	     17.04760359	     28.17903402	     35.64161239	      5.91729100	      4.14218373	    -17.36696672	     -7.81463234	     -3.24629698	      4.81580297	     12.46714691	     -5.87627502	     12.03798043
      4.57000000	    -12.62448168	      5.22079633	     -2.31994810	     -1.72356499	     -0.03181601	     -0.29656347	     -3.42898526	     -3.78962692	     -0.25948121	    -23.74923710	     -2.53087406	     18.05884019	     28.65203490	     35.59060660	      6.50499996	      4.72601299	    -18.03706324	     -7.85555261	     -3.37741990	      4.34385794	     12.61881690	     -6.30876053	     11.90673566
      4.57500000	    -12.62495493	      5.53612607	     -2.07819844	     -1.71699734	     -0.03157250	     -0.29725340	     -3.20323359	     -4.35198648	     -1.06126574	    -24.71372821	     -3.90748729	     18.96939715	     29.24963259	     35.49164134	      7.11503539	      5.33253746	    -18.63835883	     -7.90822835	     -3.67060933	      3.68380417	     12.76706337	     -6.75269718	     11.76015616
      4.58000000	    -12.65205783	      5.83925466	     -1.84175490	     -1.71029927	     -0.03136960	     -0.29786994	     -2.92965705	     -4.90122758	     -1.81958327	    -25.72844503	     -5.34302655	     19.81592710	     29.54095506	     35.38436838	      7.68102635	      5.75139881	    -19.17708387	     -7.87552898	     -3.85049964	      3.35232132	     12.97468599	     -7.19116382	     11.56119096
      4.58500000	    -12.66639239	      6.07361998	     -1.63559923	     -1.70375125	     -0.03115674	     -0.29859646	     -2.60262107	     -5.40951361	     -2.59450999	    -26.81632325	     -6.92567042	     20.62580715	     29.92305244	     35.22029172	      8.19363264	      6.29946775	    -19.64676536	     -7.82575842	     -4.27336395	      2.91541647	     13.13757273	     -7.52234688	     11.43320407
      4.59000000	    -12.66811581	      6.25238325	     -1.47738405	     -1.69721302	     -0.03093125	     -0.29931248	     -2.25415553	     -5.86710127	     -3.27591907	    -27.92261677	     -8.67390499	     21.32462019	     30.37905036	     34.99809280	      8.62903386	      6.80704478	    -20.05404404	     -7.63025302	     -4.72678345	      2.44522625	     13.29292961	     -7.77515514	     11.32741681
      4.59500000	    -12.69201895	      6.42171825	     -1.32235018	     -1.69080829	     -0.03070165	     -0.29994961	     -1.82276934	     -6.30656224	     -3.89465591	    -29.11466912	    -10.46284750	     21.83840228	     30.54256585	     34.78451233	      9.02195129	      7.16881029	    -20.40158755	     -7.46246405	     -5.04645764	      2.18753747	     13.44796050	     -8.03050757	     11.24126118
      4.60000000	    -12.71259750	      6.55041415	     -1.21223190	     -1.68452462	     -0.03046687	     -0.30062615	     -1.33278584	     -6.71164150	     -4.42415397	    -30.37870947	    -12.26855358	     22.23048484	     30.49288621	     34.53748539	      9.35097600	      7.48394094	    -20.68241287	     -7.26498596	     -5.39579799	      2.07819103	     13.58408336	     -8.20788174	     11.20223099
      4.60500000	    -12.71957200	      6.65860824	     -1.14815244	     -1.67833686	     -0.03023925	     -0.30127875	     -0.79602372	     -7.10644568	     -4.91167943	    -31.71701880	    -14.03360977	     22.49874069	     30.26644070	     34.24464110	      9.62553473	      7.70968625	    -20.89211788	     -6.98714145	     -5.72260158	      2.10494790	     13.69775146	     -8.34949257	     11.19892289
      4.61000000	    -12.77006249	      6.76323546	     -1.05044774	     -1.67221014	     -0.03001666	     -0.30202020	     -0.18546372	     -7.49339713	     -5.34458353	    -33.08189929	    -15.81878157	     22.60962039	     29.98592550	     33.96152285	      9.91385477	      7.96917903	    -21.02716738	     -6.76944730	     -6.10629836	      2.12955519	     13.85124029	     -8.48781425	     11.14282026
      4.61500000	    -12.86975803	      6.83399607	     -0.94255543	     -1.66618742	     -0.02982043	     -0.30286828	      0.51624703	     -7.84187356	     -5.70541142	    -34.47667490	    -17.59713873	     22.57589093	     29.69721606	     33.70566832	     10.17917448	      8.26710963	    -21.11048811	     -6.57815553	     -6.57118256	      2.17617292	     14.04573115	     -8.57178346	     11.05937273
      4.62000000	    -12.89878272	      6.97206904	     -0.88746137	     -1.66029321	     -0.02955745	     -0.30360157	      1.21046196	     -8.26826658	     -6.05268066	    -35.94942373	    -19.24357707	     22.32292712	     29.30910702	     33.36122333	     10.45494112	      8.38313220	    -21.13655963	     -6.31266188	     -6.85864791	      2.28237165	     14.14687550	     -8.72343920	     11.05428800
      4.62500000	    -12.96371013	      7.08517920	     -0.83776525	     -1.65452734	     -0.02928416	     -0.30431605	      1.98776816	     -8.64913133	     -6.32018986	    -37.44804673	    -20.84570346	     21.86482418	     28.88256101	     33.03430814	     10.69797537	      8.52141791	    -21.11222506	     -6.08677129	     -7.19868839	      2.37765251	     14.27139018	     -8.85578060	     11.02849888
